<svg width="36" height="48" viewBox="0 0 36 48" fill="none" xmlns="http://www.w3.org/2000/svg">
<path d="M31.8509 45.998C31.8509 47.0066 31.0331 47.8249 30.0245 47.8249H2.79616C1.7876 47.8249 0.969727 47.0066 0.969727 45.998V4.49197C0.969727 3.48341 1.78721 2.66553 2.79616 2.66553H30.0245C31.0331 2.66553 31.8509 3.48301 31.8509 4.49197V45.998Z" fill="#B4BE1F"/>
<path d="M35.0336 43.5132C35.0336 44.5226 34.2162 45.3392 33.2072 45.3392H5.97927C4.97031 45.3392 4.15283 44.5226 4.15283 43.5132V2.00751C4.15283 0.998149 4.97031 0.180664 5.97927 0.180664H33.2072C34.2158 0.180664 35.0336 0.998149 35.0336 2.00751V43.5132Z" fill="#ECEDBE"/>
<path opacity="0.18" d="M19.7893 0.180664H5.97927C4.97031 0.180664 4.15283 0.998146 4.15283 2.00711V43.5128C4.15283 44.5221 4.97031 45.3388 5.97927 45.3388H19.7893V0.180664Z" fill="#B4BE1F"/>
<path d="M31.1995 11.4759C31.604 11.4759 31.9326 11.1478 31.9326 10.7424C31.9326 10.3379 31.6044 10.0093 31.1995 10.0093H19.7871V11.4764L31.1995 11.4759Z" fill="#22A08C"/>
<path d="M31.1995 15.34C31.604 15.34 31.9326 15.0114 31.9326 14.6065C31.9326 14.2011 31.6044 13.8726 31.1995 13.8726H19.7871V15.34H31.1995Z" fill="#22A08C"/>
<path d="M31.1995 19.2039C31.604 19.2039 31.9326 18.8753 31.9326 18.4703C31.9326 18.0658 31.6044 17.7368 31.1995 17.7368H19.7871V19.2039H31.1995Z" fill="#22A08C"/>
<path d="M31.1995 23.0681C31.604 23.0681 31.9326 22.7391 31.9326 22.3345C31.9326 21.9288 31.6044 21.6006 31.1995 21.6006H19.7871V23.0681H31.1995Z" fill="#22A08C"/>
<path d="M31.1995 26.9319C31.604 26.9319 31.9326 26.6037 31.9326 26.198C31.9326 25.7934 31.6044 25.4648 31.1995 25.4648H19.7871V26.9319H31.1995Z" fill="#22A08C"/>
<path d="M31.1995 30.7958C31.604 30.7958 31.9326 30.4672 31.9326 30.0618C31.9326 29.6573 31.6044 29.3291 31.1995 29.3291H19.7871V30.7962L31.1995 30.7958Z" fill="#22A08C"/>
<path d="M31.1995 34.6603C31.604 34.6603 31.9326 34.3317 31.9326 33.9259C31.9326 33.5218 31.6044 33.1924 31.1995 33.1924H19.7871V34.6603H31.1995Z" fill="#22A08C"/>
<path d="M31.1995 38.5232C31.604 38.5232 31.9326 38.1954 31.9326 37.7897C31.9326 37.3847 31.6044 37.0562 31.1995 37.0562H19.7871V38.5232H31.1995Z" fill="#22A08C"/>
<path d="M27.5916 3.28613H19.7886V7.68935H27.5916C28.6006 7.68935 29.4181 6.87147 29.4181 5.86331V5.11298C29.4181 4.10322 28.6006 3.28613 27.5916 3.28613Z" fill="#EE563D"/>
<path d="M11.9851 3.28555C10.9766 3.28555 10.1587 4.10263 10.1587 5.11199V5.86232C10.1587 6.87048 10.9762 7.68836 11.9851 7.68836H19.7882V3.28516L11.9851 3.28555Z" fill="#EE563D"/>
<path opacity="0.42" d="M11.9851 3.28555C10.9766 3.28555 10.1587 4.10263 10.1587 5.11199V5.86232C10.1587 6.87048 10.9762 7.68836 11.9851 7.68836H19.7882V3.28516L11.9851 3.28555Z" fill="#EE563D"/>
<path d="M7.25098 10.7417C7.25098 11.1471 7.57957 11.4753 7.98492 11.4753H19.7882V10.0078H7.98492C7.57997 10.0082 7.25098 10.3372 7.25098 10.7417Z" fill="#22A08C"/>
<path opacity="0.29" d="M7.25098 10.7417C7.25098 11.1471 7.57957 11.4753 7.98492 11.4753H19.7882V10.0078H7.98492C7.57997 10.0082 7.25098 10.3372 7.25098 10.7417Z" fill="#22A08C"/>
<path d="M7.25098 14.6065C7.25098 15.0114 7.57957 15.34 7.98492 15.34H19.7882V13.8726H7.98492C7.57997 13.8726 7.25098 14.2011 7.25098 14.6065Z" fill="#22A08C"/>
<path opacity="0.29" d="M7.25098 14.6065C7.25098 15.0114 7.57957 15.34 7.98492 15.34H19.7882V13.8726H7.98492C7.57997 13.8726 7.25098 14.2011 7.25098 14.6065Z" fill="#22A08C"/>
<path d="M7.25098 18.4703C7.25098 18.8757 7.57957 19.2039 7.98492 19.2039H19.7882V17.7368H7.98492C7.57997 17.7364 7.25098 18.0654 7.25098 18.4703Z" fill="#22A08C"/>
<path opacity="0.29" d="M7.25098 18.4703C7.25098 18.8757 7.57957 19.2039 7.98492 19.2039H19.7882V17.7368H7.98492C7.57997 17.7364 7.25098 18.0654 7.25098 18.4703Z" fill="#22A08C"/>
<path d="M7.25098 22.3345C7.25098 22.7391 7.57957 23.0681 7.98492 23.0681H19.7882V21.6006H7.98492C7.57997 21.6006 7.25098 21.9288 7.25098 22.3345Z" fill="#22A08C"/>
<path opacity="0.29" d="M7.25098 22.3345C7.25098 22.7391 7.57957 23.0681 7.98492 23.0681H19.7882V21.6006H7.98492C7.57997 21.6006 7.25098 21.9288 7.25098 22.3345Z" fill="#22A08C"/>
<path d="M7.25098 26.197C7.25098 26.6027 7.57957 26.9313 7.98492 26.9313H19.7882V25.4639H7.98492C7.57997 25.4643 7.25098 25.7925 7.25098 26.197Z" fill="#22A08C"/>
<path opacity="0.29" d="M7.25098 26.197C7.25098 26.6027 7.57957 26.9313 7.98492 26.9313H19.7882V25.4639H7.98492C7.57997 25.4643 7.25098 25.7925 7.25098 26.197Z" fill="#22A08C"/>
<path d="M7.25098 30.0613C7.25098 30.4666 7.57957 30.7956 7.98492 30.7956H19.7882V29.3281H7.98492C7.57997 29.3281 7.25098 29.6571 7.25098 30.0613Z" fill="#22A08C"/>
<path opacity="0.29" d="M7.25098 30.0613C7.25098 30.4666 7.57957 30.7956 7.98492 30.7956H19.7882V29.3281H7.98492C7.57997 29.3281 7.25098 29.6571 7.25098 30.0613Z" fill="#22A08C"/>
<path d="M7.25098 33.926C7.25098 34.3314 7.57957 34.6599 7.98492 34.6599H19.7882V33.1929H7.98492C7.57997 33.1925 7.25098 33.5219 7.25098 33.926Z" fill="#22A08C"/>
<path opacity="0.29" d="M7.25098 33.926C7.25098 34.3314 7.57957 34.6599 7.98492 34.6599H19.7882V33.1929H7.98492C7.57997 33.1925 7.25098 33.5219 7.25098 33.926Z" fill="#22A08C"/>
<path d="M7.25098 37.7897C7.25098 38.1954 7.57957 38.5232 7.98492 38.5232H19.7882V37.0562H7.98492C7.57997 37.0562 7.25098 37.3851 7.25098 37.7897Z" fill="#22A08C"/>
<path opacity="0.29" d="M7.25098 37.7897C7.25098 38.1954 7.57957 38.5232 7.98492 38.5232H19.7882V37.0562H7.98492C7.57997 37.0562 7.25098 37.3851 7.25098 37.7897Z" fill="#22A08C"/>
</svg>
