<svg width="40" height="41" viewBox="0 0 40 41" fill="none" xmlns="http://www.w3.org/2000/svg">
<path d="M19.9996 38.4166C18.9996 38.4166 18.0163 38.1833 17.2163 37.7333L9.33294 33.1833C6.06628 30.9833 5.84961 30.5833 5.84961 27.1333V18.8666C5.84961 15.4166 6.06628 15.0166 9.26628 12.8666L17.2329 8.2666C18.8163 7.34993 21.1996 7.34993 22.7829 8.2666L30.6663 12.8166C33.9329 15.0166 34.1496 15.4166 34.1496 18.8666V27.1333C34.1496 30.5833 33.9329 30.9833 30.7329 33.1333L22.7663 37.7333C21.9829 38.1999 20.9829 38.4166 19.9996 38.4166ZM19.9996 10.0833C19.4329 10.0833 18.8663 10.1999 18.4663 10.4333L10.5829 14.9833C8.34961 16.4999 8.34961 16.4999 8.34961 18.8666V27.1333C8.34961 29.4999 8.34961 29.4999 10.6663 31.0666L18.4829 35.5666C19.2829 36.0333 20.7329 36.0333 21.5329 35.5666L29.4163 31.0166C31.6496 29.4999 31.6496 29.4999 31.6496 27.1333V18.8666C31.6496 16.4999 31.6496 16.4999 29.3329 14.9333L21.5163 10.4333C21.1329 10.1999 20.5663 10.0833 19.9996 10.0833Z" fill="#8B5CF4"/>
<path d="M29.1673 14.4668C28.484 14.4668 27.9173 13.9002 27.9173 13.2168V8.8335C27.9173 6.20016 26.8007 5.0835 24.1673 5.0835H15.834C13.2007 5.0835 12.084 6.20016 12.084 8.8335V13.1002C12.084 13.7835 11.5173 14.3502 10.834 14.3502C10.1507 14.3502 9.58398 13.8002 9.58398 13.1002V8.8335C9.58398 4.80016 11.8007 2.5835 15.834 2.5835H24.1673C28.2007 2.5835 30.4173 4.80016 30.4173 8.8335V13.2168C30.4173 13.9002 29.8507 14.4668 29.1673 14.4668Z" fill="#8B5CF4"/>
<path d="M22.7158 29.8835C22.3658 29.8835 21.9991 29.8169 21.6324 29.6669L19.9991 29.0335L18.3658 29.6835C17.4824 30.0335 16.5824 29.9502 15.9158 29.4669C15.2491 28.9835 14.8991 28.1502 14.9491 27.2002L15.0491 25.4502L13.9324 24.1002C13.3324 23.3502 13.1324 22.4835 13.3991 21.6835C13.6491 20.9002 14.3324 20.3002 15.2491 20.0669L16.9491 19.6335L17.8991 18.1502C18.9158 16.5502 21.0991 16.5502 22.1158 18.1502L23.0658 19.6335L24.7658 20.0669C25.6824 20.3002 26.3658 20.9002 26.6158 21.6835C26.8658 22.4669 26.6658 23.3502 26.0658 24.0835L24.9491 25.4335L25.0491 27.1835C25.0991 28.1335 24.7491 28.9502 24.0824 29.4502C23.6824 29.7335 23.2158 29.8835 22.7158 29.8835ZM15.8658 22.5002L16.9824 23.8502C17.3658 24.3002 17.5824 25.0169 17.5491 25.6002L17.4491 27.3502L19.0824 26.7002C19.6324 26.4835 20.3658 26.4835 20.9158 26.7002L22.5491 27.3502L22.4491 25.6002C22.4158 25.0169 22.6324 24.3169 23.0158 23.8502L24.1324 22.5002L22.4324 22.0669C21.8658 21.9169 21.2658 21.4835 20.9491 21.0002L20.0158 19.5335L19.0658 21.0002C18.7491 21.5002 18.1491 21.9335 17.5824 22.0835L15.8658 22.5002Z" fill="#8B5CF4"/>
</svg>
