<svg width="40" height="41" viewBox="0 0 40 41" fill="none" xmlns="http://www.w3.org/2000/svg">
<path d="M20.0007 37.2999C19.5007 37.2999 19.0007 37.1832 18.584 36.9499C15.4673 35.2499 9.98398 33.4499 6.55065 32.9999L6.06732 32.9332C3.88398 32.6665 2.08398 30.6165 2.08398 28.3999V8.26652C2.08398 6.94985 2.60065 5.74985 3.55065 4.88318C4.50065 4.01652 5.73398 3.59985 7.03398 3.71652C10.7007 3.99985 16.234 5.83318 19.3673 7.79985L19.7673 8.03318C19.884 8.09985 20.134 8.09985 20.234 8.04985L20.5007 7.88318C23.634 5.91652 29.1673 4.04985 32.8506 3.73318C32.884 3.73318 33.0173 3.73318 33.0506 3.73318C34.2673 3.61652 35.5173 4.04985 36.4507 4.91652C37.4007 5.78318 37.9173 6.98318 37.9173 8.29985V28.4165C37.9173 30.6499 36.1173 32.6832 33.9173 32.9499L33.3673 33.0165C29.934 33.4665 24.434 35.2832 21.384 36.9665C20.984 37.1999 20.5007 37.2999 20.0007 37.2999ZM6.63398 6.19985C6.10065 6.19985 5.61732 6.38318 5.23398 6.73318C4.81732 7.11652 4.58398 7.66652 4.58398 8.26652V28.3999C4.58398 29.3832 5.43398 30.3332 6.38398 30.4665L6.88398 30.5332C10.634 31.0332 16.384 32.9165 19.7173 34.7332C19.8673 34.7999 20.084 34.8165 20.1673 34.7832C23.5007 32.9332 29.284 31.0332 33.0506 30.5332L33.6173 30.4665C34.5673 30.3498 35.4173 29.3832 35.4173 28.3999V8.28318C35.4173 7.66652 35.184 7.13318 34.7673 6.73318C34.334 6.34985 33.784 6.16652 33.1673 6.19985C33.134 6.19985 33.0007 6.19985 32.9673 6.19985C29.784 6.48318 24.6507 8.19985 21.8507 9.94985L21.584 10.1332C20.6673 10.6999 19.3673 10.6999 18.484 10.1499L18.084 9.91652C15.234 8.16652 10.1007 6.46652 6.83398 6.19985C6.76732 6.19985 6.70065 6.19985 6.63398 6.19985Z" fill="#4BBC9A"/>
<path d="M20 35.8999C19.3167 35.8999 18.75 35.3332 18.75 34.6499V9.6499C18.75 8.96657 19.3167 8.3999 20 8.3999C20.6833 8.3999 21.25 8.96657 21.25 9.6499V34.6499C21.25 35.3499 20.6833 35.8999 20 35.8999Z" fill="#4BBC9A"/>
<path d="M12.916 15.8999H9.16602C8.48268 15.8999 7.91602 15.3332 7.91602 14.6499C7.91602 13.9666 8.48268 13.3999 9.16602 13.3999H12.916C13.5993 13.3999 14.166 13.9666 14.166 14.6499C14.166 15.3332 13.5993 15.8999 12.916 15.8999Z" fill="#4BBC9A"/>
<path d="M14.166 20.8999H9.16602C8.48268 20.8999 7.91602 20.3332 7.91602 19.6499C7.91602 18.9666 8.48268 18.3999 9.16602 18.3999H14.166C14.8493 18.3999 15.416 18.9666 15.416 19.6499C15.416 20.3332 14.8493 20.8999 14.166 20.8999Z" fill="#4BBC9A"/>
</svg>
