<svg width="21" height="20" viewBox="0 0 21 20" fill="none" xmlns="http://www.w3.org/2000/svg">
<g clip-path="url(#clip0_384_2260)">
<path d="M7.46721 0.658267C5.4689 1.3515 3.74556 2.66728 2.55032 4.41233C1.35508 6.15739 0.750946 8.23974 0.826651 10.3535C0.902355 12.4673 1.65391 14.5011 2.97092 16.1562C4.28794 17.8113 6.10099 19.0004 8.14377 19.5489C9.7999 19.9762 11.535 19.995 13.2 19.6036C14.7083 19.2648 16.1028 18.5401 17.2469 17.5005C18.4376 16.3854 19.302 14.9668 19.7469 13.3973C20.2305 11.6906 20.3166 9.89566 19.9985 8.15045H10.6985V12.0083H16.0844C15.9768 12.6236 15.7461 13.2108 15.4062 13.7349C15.0663 14.2589 14.6242 14.7091 14.1063 15.0583C13.4486 15.4933 12.7072 15.786 11.9297 15.9176C11.1499 16.0626 10.3501 16.0626 9.57033 15.9176C8.78 15.7542 8.03236 15.428 7.37502 14.9598C6.319 14.2123 5.52608 13.1503 5.1094 11.9255C4.68567 10.6776 4.68567 9.32484 5.1094 8.07702C5.406 7.20235 5.89632 6.40598 6.54377 5.74733C7.2847 4.97975 8.22273 4.43108 9.25495 4.16151C10.2872 3.89195 11.3737 3.91191 12.3953 4.2192C13.1934 4.46419 13.9232 4.89223 14.5266 5.4692C15.1339 4.86504 15.7401 4.25931 16.3453 3.65202C16.6578 3.32545 16.9985 3.01452 17.3063 2.68014C16.3853 1.82307 15.3042 1.15617 14.125 0.717642C11.9777 -0.0620611 9.62811 -0.0830148 7.46721 0.658267Z" fill="white"/>
<path d="M7.46709 0.65805C9.62781 -0.0837359 11.9774 -0.0633337 14.1249 0.715863C15.3043 1.15737 16.3849 1.82748 17.3046 2.68774C16.9921 3.02211 16.6624 3.33461 16.3437 3.65961C15.7374 4.26482 15.1317 4.86795 14.5265 5.46899C13.9231 4.89201 13.1933 4.46397 12.3952 4.21899C11.3739 3.91061 10.2874 3.8895 9.25493 4.15796C8.22243 4.42642 7.28383 4.97408 6.54209 5.74086C5.89464 6.39951 5.40432 7.19589 5.10771 8.07055L1.86865 5.56274C3.02804 3.26361 5.03545 1.50496 7.46709 0.65805Z" fill="#E33629"/>
<path d="M1.00918 8.04688C1.18327 7.18405 1.47231 6.34848 1.86855 5.5625L5.10761 8.07656C4.68389 9.32438 4.68389 10.6772 5.10761 11.925C4.02845 12.7583 2.94876 13.5958 1.86855 14.4375C0.876598 12.463 0.57407 10.2133 1.00918 8.04688Z" fill="#F8BD00"/>
<path d="M10.6984 8.14844H19.9984C20.3166 9.89365 20.2305 11.6885 19.7469 13.3953C19.3019 14.9648 18.4376 16.3834 17.2469 17.4984C16.2016 16.6828 15.1516 15.8734 14.1063 15.0578C14.6245 14.7082 15.0668 14.2576 15.4067 13.733C15.7467 13.2084 15.9771 12.6205 16.0844 12.0047H10.6984C10.6969 10.7203 10.6984 9.43437 10.6984 8.14844Z" fill="#587DBD"/>
<path d="M1.86719 14.4373C2.9474 13.604 4.02708 12.7665 5.10625 11.9248C5.52376 13.1501 6.31782 14.2121 7.375 14.9592C8.03439 15.4252 8.78364 15.7488 9.575 15.9092C10.3548 16.0542 11.1546 16.0542 11.9344 15.9092C12.7119 15.7776 13.4533 15.4849 14.1109 15.0498C15.1562 15.8654 16.2063 16.6748 17.2516 17.4904C16.1076 18.5306 14.7132 19.2559 13.2047 19.5951C11.5397 19.9865 9.80457 19.9678 8.14844 19.5404C6.8386 19.1907 5.61512 18.5742 4.55469 17.7295C3.43228 16.8384 2.51556 15.7154 1.86719 14.4373Z" fill="#319F43"/>
</g>
<defs>
<clipPath id="clip0_384_2260">
<rect width="20" height="20" fill="white" transform="translate(0.5)"/>
</clipPath>
</defs>
</svg>
