<svg width="32" height="33" viewBox="0 0 32 33" fill="none" xmlns="http://www.w3.org/2000/svg">
<path d="M2.66669 24.4993C2.66669 22.446 2.66669 21.4193 3.12935 20.6647C3.38802 20.242 3.74269 19.8873 4.16535 19.6287C4.91869 19.166 5.94669 19.166 8.00002 19.166C10.0534 19.166 11.08 19.166 11.8347 19.6287C12.2574 19.8873 12.612 20.242 12.8707 20.6647C13.3334 21.418 13.3334 22.446 13.3334 24.4993C13.3334 26.5527 13.3334 27.5793 12.8707 28.3353C12.612 28.7567 12.2574 29.1113 11.8347 29.37C11.0814 29.8327 10.0534 29.8327 8.00002 29.8327C5.94669 29.8327 4.92002 29.8327 4.16535 29.37C3.74315 29.1118 3.38813 28.7572 3.12935 28.3353C2.66669 27.5793 2.66669 26.5527 2.66669 24.4993ZM18.6667 24.4993C18.6667 22.446 18.6667 21.4193 19.1294 20.6647C19.388 20.242 19.7427 19.8873 20.1654 19.6287C20.9187 19.166 21.9467 19.166 24 19.166C26.0534 19.166 27.08 19.166 27.836 19.6287C28.2574 19.8873 28.612 20.242 28.8707 20.6647C29.3334 21.418 29.3334 22.446 29.3334 24.4993C29.3334 26.5527 29.3334 27.5793 28.8707 28.3353C28.6119 28.7567 28.2574 29.1112 27.836 29.37C27.08 29.8327 26.0534 29.8327 24 29.8327C21.9467 29.8327 20.92 29.8327 20.1654 29.37C19.7432 29.1118 19.3881 28.7572 19.1294 28.3353C18.6667 27.5793 18.6667 26.5527 18.6667 24.4993ZM2.66669 8.49935C2.66669 6.44602 2.66669 5.41935 3.12935 4.66468C3.38802 4.24202 3.74269 3.88735 4.16535 3.62868C4.91869 3.16602 5.94669 3.16602 8.00002 3.16602C10.0534 3.16602 11.08 3.16602 11.8347 3.62868C12.2574 3.88735 12.612 4.24202 12.8707 4.66468C13.3334 5.41802 13.3334 6.44602 13.3334 8.49935C13.3334 10.5527 13.3334 11.5793 12.8707 12.334C12.612 12.7567 12.2574 13.1113 11.8347 13.37C11.0814 13.8327 10.0534 13.8327 8.00002 13.8327C5.94669 13.8327 4.92002 13.8327 4.16535 13.37C3.743 13.1114 3.38796 12.7564 3.12935 12.334C2.66669 11.5807 2.66669 10.5527 2.66669 8.49935ZM18.6667 8.49935C18.6667 6.44602 18.6667 5.41935 19.1294 4.66468C19.388 4.24202 19.7427 3.88735 20.1654 3.62868C20.9187 3.16602 21.9467 3.16602 24 3.16602C26.0534 3.16602 27.08 3.16602 27.836 3.62868C28.2574 3.88735 28.612 4.24202 28.8707 4.66468C29.3334 5.41802 29.3334 6.44602 29.3334 8.49935C29.3334 10.5527 29.3334 11.5793 28.8707 12.334C28.612 12.7567 28.2574 13.1113 27.836 13.37C27.08 13.8327 26.0534 13.8327 24 13.8327C21.9467 13.8327 20.92 13.8327 20.1654 13.37C19.743 13.1114 19.388 12.7564 19.1294 12.334C18.6667 11.5807 18.6667 10.5527 18.6667 8.49935Z" stroke="#F15A24" stroke-width="1.5" stroke-linecap="round" stroke-linejoin="round"/>
</svg>
