<svg width="63" height="45" viewBox="0 0 63 45" fill="none" xmlns="http://www.w3.org/2000/svg">
<path d="M52.2554 19.5903H31.1881H10.1204C9.83184 19.5903 9.59814 19.8244 9.59814 20.1129V32.649C9.59814 37.4332 19.0815 44.598 31.1885 44.598C43.2955 44.598 52.7784 37.4336 52.7784 32.649V20.1129C52.778 19.8244 52.5448 19.5903 52.2554 19.5903Z" fill="#2E313D"/>
<path d="M52.2529 19.5903H31.1855V44.598C43.2925 44.598 52.7755 37.4336 52.7755 32.649V20.1129C52.7755 19.8244 52.5422 19.5903 52.2529 19.5903Z" fill="#272A36"/>
<path opacity="0.74" d="M52.2554 21.8291H10.1204C9.83184 21.8291 9.59814 22.0632 9.59814 22.3513V24.7493L30.9299 36.8927C31.0101 36.9382 31.0995 36.961 31.1881 36.961C31.2775 36.961 31.3665 36.9382 31.4462 36.8927L52.778 24.7493V22.3513C52.778 22.0628 52.5448 21.8291 52.2554 21.8291Z" fill="#1E222D"/>
<path d="M61.6712 16.1555C61.6645 16.1517 61.6586 16.1479 61.6518 16.1441L31.8646 0.172414C31.4521 -0.0574712 30.9236 -0.0574712 30.5094 0.172414L0.722964 16.1441C0.717481 16.1479 0.711151 16.1513 0.704402 16.1547C0.270368 16.4018 0 16.8654 0 17.3657C0 17.8651 0.270378 18.3291 0.70399 18.5763L30.4971 35.5363C30.7072 35.6556 30.9463 35.7189 31.188 35.7189C31.4293 35.7189 31.6685 35.6556 31.8768 35.5371L61.6716 18.5763C62.1048 18.3291 62.3756 17.8655 62.3756 17.3661C62.3748 16.8658 62.1057 16.4027 61.6712 16.1555Z" fill="#2E313D"/>
<path d="M61.6692 16.1552C61.6624 16.1514 61.6565 16.1476 61.6498 16.1438L31.8626 0.172099C31.6555 0.0569459 31.4205 0 31.1855 0V35.7186C31.4268 35.7186 31.666 35.6558 31.8748 35.5364L61.6692 18.5755C62.1028 18.3284 62.3736 17.8648 62.3736 17.3649C62.3727 16.8655 62.1036 16.4024 61.6692 16.1552Z" fill="#272A36"/>
<path d="M46.167 37.4209H46.3547C46.8533 37.4209 47.2578 37.016 47.2578 36.5178C47.2578 36.0256 46.8642 35.6274 46.3754 35.6164V26.1388C46.3754 26.1262 46.3741 26.1135 46.3732 26.1009C46.3724 26.0773 46.372 26.0553 46.3699 26.0321C46.3678 26.0161 46.3657 26.0009 46.364 25.9857C46.3606 25.9638 46.3576 25.9414 46.3534 25.9203C46.3509 25.9052 46.3475 25.8908 46.3437 25.8769C46.3387 25.8533 46.3332 25.8309 46.326 25.8081C46.3222 25.7972 46.3184 25.7849 46.3146 25.774C46.3066 25.7491 46.2977 25.7234 46.2876 25.6989C46.2842 25.6921 46.2813 25.685 46.2783 25.6778C46.2657 25.6487 46.2518 25.6209 46.2374 25.5926C46.2358 25.5909 46.2349 25.5888 46.234 25.5863C46.1518 25.4357 46.0354 25.3007 45.8844 25.1944L31.6148 15.2005C31.0952 14.8365 30.3781 14.9631 30.0145 15.4827C29.6505 16.002 29.7762 16.719 30.2963 17.0822L44.0774 26.7332V35.6151C43.5885 35.627 43.195 36.0251 43.195 36.517C43.195 37.016 43.5999 37.4196 44.0985 37.4196H44.2862C43.6543 38.6294 42.9697 40.0998 43.0503 40.66C43.1747 41.531 44.7198 41.6575 45.1652 41.6752C45.1652 41.6752 45.188 41.6786 45.226 41.6774C45.2639 41.679 45.2863 41.6752 45.2863 41.6752C45.7321 41.6575 47.2772 41.531 47.402 40.66C47.483 40.0998 46.7993 38.6294 46.167 37.4209Z" fill="#E7ECB1"/>
</svg>
