<svg width="80" height="80" viewBox="0 0 80 80" fill="none" xmlns="http://www.w3.org/2000/svg">
<path d="M39.3879 41.52L38.8296 46.533L39.5576 49.9025L40.4422 49.9021L42.2675 46.0531L40.7743 41.52H39.3879Z" fill="#ECEDBE"/>
<path d="M40 0C62.0904 0 80 17.9067 80 39.9988C80 62.0908 62.0904 80 40 80C17.9084 80 0 62.0908 0 39.9988C0 17.9067 17.9084 0 40 0Z" fill="#22A08C"/>
<path d="M55.7743 41.05C56.0479 40.8922 56.2156 40.6001 56.2156 40.2841V35.7774L58.4693 31.8744C58.6271 31.6008 58.6271 31.2638 58.4693 30.9902L56.2156 27.0867V22.5801C56.2156 22.2636 56.0479 21.9719 55.7743 21.8137L51.8713 19.56L49.6179 15.6577C49.4597 15.3846 49.168 15.2156 48.852 15.2156H44.3449L40.4414 12.9639C40.3051 12.8848 40.153 12.8457 40.0002 12.8457C39.8477 12.8457 39.6949 12.8853 39.5568 12.9639L35.6542 15.2156H31.1476C30.8315 15.2156 30.5394 15.3846 30.382 15.6577L28.1287 19.56L24.2256 21.8137C23.9516 21.9723 23.7827 22.264 23.7827 22.5801V27.0867L21.5298 30.9902C21.3716 31.2638 21.3716 31.6008 21.5298 31.8744L23.7827 35.7782V40.2845C23.7827 40.6013 23.9521 40.8935 24.2256 41.05L28.1287 43.3034L28.1563 43.3511L27.8213 44.3824H27.8217L22.084 62.0658C21.9908 62.3534 22.0654 62.669 22.2772 62.8862C22.4894 63.1025 22.8042 63.1837 23.093 63.0979L30.143 60.9765L34.6031 66.8325C34.7066 66.9672 34.8454 67.0628 35.0007 67.1139C35.1239 67.1539 35.2558 67.1642 35.388 67.1419C35.6872 67.0912 35.9323 66.8786 36.0258 66.5902L39.9989 54.3455L43.9724 66.5902C44.066 66.8778 44.3111 67.0908 44.6103 67.1419C44.7425 67.1642 44.8752 67.1535 44.9988 67.1135C45.1529 67.0632 45.2921 66.9668 45.3947 66.8321L49.8569 60.9761L56.9053 63.0975C57.1958 63.1837 57.5106 63.1029 57.7227 62.8862C57.9345 62.669 58.007 62.3534 57.9143 62.0654L52.1774 44.3816H52.1778L51.8428 43.3507L51.8704 43.3034L55.7743 41.05ZM37.9809 18.3231C38.4197 18.2555 38.8659 18.2102 39.3179 18.1871C38.8659 18.2098 38.4197 18.2555 37.9809 18.3231C31.6152 19.2959 26.7377 24.7947 26.7377 31.4323C26.7373 24.7942 31.6148 19.295 37.9809 18.3231ZM27.7801 36.5945C28.2111 37.6138 28.7673 38.5664 29.427 39.4366C28.7669 38.5668 28.2111 37.6138 27.7801 36.5945ZM48.8524 48.9043H44.3449L41.1711 50.7374V50.7366L44.3453 48.9035H48.8528C49.0893 48.9035 49.313 48.8083 49.4766 48.646C49.313 48.8092 49.0893 48.9043 48.8524 48.9043Z" fill="#E0E1B3"/>
<path d="M45.4221 34.998L33.0282 30.9767C32.6005 30.8374 32.1411 31.0723 32.0035 31.4995L22.0837 62.0667C21.991 62.3543 22.0652 62.67 22.2769 62.8879C22.4895 63.1034 22.8039 63.185 23.0927 63.0989L30.1436 60.9774L34.6033 66.8334C34.7063 66.9681 34.8456 67.0637 35.0009 67.1148C35.1241 67.1548 35.2559 67.1651 35.3882 67.1428C35.6877 67.0921 35.9329 66.8795 36.0264 66.5915L45.9458 36.0243C46.0846 35.5966 45.8493 35.1364 45.4221 34.998Z" fill="#262834"/>
<path d="M49.6187 48.463C49.4605 48.7357 49.1688 48.9046 48.8532 48.9046H44.3457L40.4422 51.1588C40.3063 51.2375 40.1538 51.2762 40.001 51.2762C39.8485 51.2762 39.6957 51.2379 39.5576 51.1588L38.8296 50.7381L43.9732 66.5909C44.0668 66.8785 44.3123 67.0915 44.6106 67.1426C44.7433 67.1649 44.876 67.1542 45 67.1142C45.1537 67.0639 45.2929 66.9675 45.3955 66.8328L49.8581 60.9768L56.9065 63.0983C57.197 63.1844 57.5122 63.1036 57.7239 62.8869C57.9361 62.6698 58.0086 62.3542 57.9155 62.0662L52.1786 44.3823L51.872 44.5599L49.6187 48.463Z" fill="#2E313D"/>
<path opacity="0.18" d="M32.0034 31.4987L27.8223 44.3829L28.1292 44.5601L30.383 48.4631C30.5404 48.7359 30.8325 48.9048 31.1481 48.9048H35.6547L38.8293 50.7379L34.0549 36.0239C33.916 35.5962 34.1496 35.136 34.5781 34.9984L40.0003 33.2382L33.0289 30.9763C32.6004 30.837 32.141 31.071 32.0034 31.4987Z" fill="#2E313D"/>
<path d="M32.0034 31.4987L27.8223 44.3829L28.1292 44.5601L30.383 48.4631C30.5404 48.7359 30.8325 48.9048 31.1481 48.9048H35.6547L38.8293 50.7379L34.0549 36.0239C33.916 35.5962 34.1496 35.136 34.5781 34.9984L40.0003 33.2382L33.0289 30.9763C32.6004 30.837 32.141 31.071 32.0034 31.4987Z" fill="#1D1F2B"/>
<path d="M46.9706 30.9761L34.5783 34.9978C34.1498 35.1362 33.9166 35.596 34.055 36.0237L38.8295 50.7373L39.5575 51.1588C39.6951 51.2379 39.8484 51.2766 40.0009 51.2766C40.1537 51.2766 40.3062 51.2379 40.4426 51.1588L44.346 48.9046H48.8531C49.1695 48.9046 49.4608 48.7361 49.619 48.4625L51.8724 44.5599L52.1789 44.3823L47.9982 31.4985C47.8581 31.0712 47.3987 30.8372 46.9706 30.9761Z" fill="#2E313D"/>
<path d="M48.6378 36.0589L36.2455 40.081C35.817 40.2194 35.5838 40.6788 35.7218 41.1069L38.8289 50.7378L39.5569 51.1593C39.6945 51.2384 39.8478 51.2772 40.0002 51.2772C40.1531 51.2772 40.3055 51.2384 40.4419 51.1593L44.3454 48.9048H48.8524C49.1689 48.9048 49.4602 48.7358 49.6184 48.4631L51.8717 44.56L52.1783 44.3829L49.6645 36.5813C49.5253 36.1544 49.0659 35.9204 48.6378 36.0589Z" fill="#262834"/>
<path d="M58.4691 30.9911L56.2158 27.0877V22.581C56.2158 22.2642 56.0481 21.9729 55.7745 21.8151L51.8711 19.5609L49.6182 15.6587C49.4595 15.3851 49.1678 15.217 48.8522 15.217H44.3447L40.4417 12.9649C40.3053 12.8858 40.1529 12.8467 40 12.8467V18.1704C47.3245 18.1704 53.2612 24.1075 53.2612 31.4324C53.2612 38.7564 47.3245 44.6945 40 44.6945V50.021C40.1529 50.021 40.3053 49.9815 40.4417 49.902L44.3447 47.6486H48.8522C49.1682 47.6486 49.4599 47.4805 49.6182 47.2069L51.8711 43.3031L55.7745 41.0497C56.0481 40.8924 56.2158 40.5998 56.2158 40.2838V35.7772L58.4691 31.8741C58.627 31.6013 58.627 31.2643 58.4691 30.9911Z" fill="#ECEDBE"/>
<path d="M48.6343 31.4325C48.6343 36.2016 44.7683 40.0675 40 40.0675V44.6945C47.324 44.6945 53.2612 38.7565 53.2612 31.4325C53.2612 24.1076 47.3245 18.1704 40 18.1704V22.797C44.7683 22.797 48.6343 26.6633 48.6343 31.4325Z" fill="#ECEDBE"/>
<path d="M48.6343 31.4325C48.6343 36.2016 44.7683 40.0675 40 40.0675V44.6945C47.324 44.6945 53.2612 38.7565 53.2612 31.4325C53.2612 24.1076 47.3245 18.1704 40 18.1704V22.797C44.7683 22.797 48.6343 26.6633 48.6343 31.4325Z" fill="#E0E1B3"/>
<path d="M48.6343 31.4324C48.6343 26.6632 44.7683 22.7969 40 22.7969V40.0674C44.7683 40.0674 48.6343 36.2015 48.6343 31.4324Z" fill="#ECEDBE"/>
<path d="M26.7373 31.4334C26.7373 24.1085 32.6761 18.1714 40.0002 18.1714V12.8477C39.8477 12.8477 39.6949 12.8868 39.5568 12.9659L35.6542 15.218H31.1475C30.8315 15.218 30.5398 15.3865 30.3824 15.6597L28.1291 19.5619L24.226 21.816C23.9521 21.9743 23.7831 22.266 23.7831 22.582V27.0887L21.5298 30.9921C21.3716 31.2653 21.3716 31.6023 21.5298 31.8759L23.7831 35.7798V40.286C23.7831 40.6029 23.9521 40.895 24.226 41.0524L28.1291 43.3053L30.3824 47.2087C30.5402 47.4823 30.8324 47.6513 31.1475 47.6513H35.6542L39.5568 49.9042C39.6949 49.9833 39.8477 50.0232 40.0002 50.0232V44.6971C32.6761 44.6959 26.7373 38.7579 26.7373 31.4334Z" fill="#E0E1B3"/>
<path d="M39.9997 22.7969C35.2297 22.7969 31.3638 26.6632 31.3638 31.4324C31.3638 36.2015 35.2301 40.0674 39.9997 40.0674C44.768 40.0674 48.6339 36.2015 48.6339 31.4324C48.6339 26.6632 44.768 22.7969 39.9997 22.7969Z" fill="#ECEDBE"/>
<path d="M26.7368 31.4325C26.7368 38.7565 32.6757 44.6945 39.9997 44.6945V40.0675C35.2298 40.0675 31.3638 36.2012 31.3638 31.4325C31.3638 26.6633 35.2302 22.797 39.9997 22.797V18.1704C32.6757 18.1704 26.7368 24.1076 26.7368 31.4325Z" fill="#ECEDBE"/>
<path d="M26.7368 31.4325C26.7368 38.7565 32.6757 44.6945 39.9997 44.6945V40.0675C35.2298 40.0675 31.3638 36.2012 31.3638 31.4325C31.3638 26.6633 35.2302 22.797 39.9997 22.797V18.1704C32.6757 18.1704 26.7368 24.1076 26.7368 31.4325Z" fill="#D4D5A7"/>
<path d="M31.3638 31.4324C31.3638 36.2015 35.2301 40.0674 39.9997 40.0674V22.7969C35.2297 22.7969 31.3638 26.6632 31.3638 31.4324Z" fill="#E0E1B3"/>
</svg>
