<svg width="170" height="66" viewBox="0 0 170 66" fill="none" xmlns="http://www.w3.org/2000/svg">
<g clip-path="url(#clip0_520_7053)">
<path d="M64.5175 7.57324H66.4103V17.3346C66.4103 21.2084 64.4956 22.3994 61.9719 22.3994C61.2755 22.3994 60.4265 22.2484 59.9482 22.0533L60.2318 20.5161C60.6228 20.6671 61.1883 20.7977 61.8208 20.7977C63.5173 20.7977 64.519 20.0393 64.519 17.1836V7.57324H64.5175Z" fill="#30313E"/>
<path d="M79.0305 16.8372C79.0305 20.7109 76.3323 22.3991 73.7867 22.3991C70.9358 22.3991 68.7393 20.3207 68.7393 17.0102C68.7393 13.5031 71.0465 11.4482 73.9612 11.4482C76.985 11.4467 79.0305 13.6337 79.0305 16.8372ZM70.6757 16.9457C70.6757 19.2397 72.003 20.9721 73.874 20.9721C75.7013 20.9721 77.0723 19.2618 77.0723 16.9032C77.0723 15.1284 76.1796 12.8769 73.9176 12.8769C71.6556 12.8769 70.6757 14.9538 70.6757 16.9457Z" fill="#30313E"/>
<path d="M81.3579 22.1614C81.4015 21.4471 81.4451 20.3866 81.4451 19.4551V6.79395H83.338V13.3739H83.3816C84.0561 12.2049 85.2744 11.4481 86.9709 11.4481C89.5819 11.4481 91.431 13.6131 91.4092 16.7945C91.4092 20.5392 89.0382 22.4005 86.6874 22.4005C85.1638 22.4005 83.9455 21.8168 83.1619 20.4306H83.0965L83.0092 22.1614H81.3579ZM83.338 17.962C83.338 18.1996 83.3816 18.4387 83.4252 18.6543C83.7944 19.9744 84.9052 20.8838 86.2979 20.8838C88.2997 20.8838 89.4962 19.26 89.4962 16.8574C89.4962 14.7585 88.4088 12.9617 86.3633 12.9617C85.0578 12.9617 83.8396 13.8491 83.447 15.2998C83.4034 15.5169 83.338 15.7765 83.338 16.0786V17.962Z" fill="#30313E"/>
<path d="M99.6563 22.1618L99.5037 20.8417H99.4382C98.8509 21.6646 97.7199 22.3994 96.2181 22.3994C94.0854 22.3994 92.998 20.9062 92.998 19.391C92.998 16.8594 95.2601 15.4732 99.3292 15.4953V15.2781C99.3292 14.4128 99.0893 12.8535 96.9363 12.8535C95.958 12.8535 94.9345 13.1572 94.1945 13.6323L93.7598 12.3768C94.6307 11.8135 95.8925 11.4453 97.2198 11.4453C100.44 11.4453 101.224 13.6308 101.224 15.7313V19.649C101.224 20.5585 101.267 21.4459 101.398 22.1602H99.6563V22.1618ZM99.3728 16.8153C97.2837 16.7713 94.9127 17.1395 94.9127 19.1754C94.9127 20.409 95.7399 20.9943 96.7182 20.9943C98.0891 20.9943 98.96 20.1289 99.2638 19.2415C99.3292 19.0464 99.3728 18.8309 99.3728 18.6358V16.8153Z" fill="#30313E"/>
<path d="M108.926 14.5207C108.926 13.4382 108.904 12.5508 108.838 11.6854H110.535L110.644 13.4162H110.688C111.209 12.4202 112.428 11.4463 114.169 11.4463C115.628 11.4463 117.89 12.3117 117.89 15.9053V22.1612H115.975V16.1224C115.975 14.4342 115.344 13.0276 113.538 13.0276C112.277 13.0276 111.297 13.915 110.971 14.9754C110.884 15.213 110.84 15.5387 110.84 15.8628V22.1612H108.926V14.5207Z" fill="#F15A24"/>
<path d="M126.832 22.1618L126.679 20.8417H126.614C126.026 21.6646 124.895 22.3994 123.393 22.3994C121.261 22.3994 120.173 20.9062 120.173 19.391C120.173 16.8594 122.435 15.4732 126.504 15.4953V15.2781C126.504 14.4128 126.265 12.8535 124.112 12.8535C123.133 12.8535 122.11 13.1572 121.37 13.6323L120.935 12.3768C121.806 11.8135 123.068 11.4453 124.395 11.4453C127.615 11.4453 128.399 13.6308 128.399 15.7313V19.649C128.399 20.5585 128.442 21.4459 128.573 22.1602H126.832V22.1618ZM126.55 16.8153C124.461 16.7713 122.09 17.1395 122.09 19.1754C122.09 20.409 122.917 20.9943 123.895 20.9943C125.266 20.9943 126.137 20.1289 126.441 19.2415C126.506 19.0464 126.55 18.8309 126.55 18.6358V16.8153Z" fill="#30313E"/>
<path d="M133.708 8.67578V11.6841H136.45V13.1348H133.708V18.7849C133.708 20.083 134.077 20.8193 135.145 20.8193C135.645 20.8193 136.015 20.7548 136.254 20.6887L136.341 22.1174C135.972 22.2684 135.384 22.377 134.644 22.377C133.752 22.377 133.034 22.0953 132.577 21.5761C132.034 21.0128 131.837 20.083 131.837 18.8494V13.1348H130.205V11.6841H131.837V9.17455L133.708 8.67578Z" fill="#30313E"/>
<path d="M147.416 19.304C147.416 20.3865 147.438 21.3384 147.503 22.1613H145.806L145.697 20.451H145.654C145.154 21.2943 144.043 22.3989 142.172 22.3989C140.519 22.3989 138.539 21.4894 138.539 17.8108V11.6855H140.454V17.4867C140.454 19.4786 141.063 20.8207 142.803 20.8207C144.087 20.8207 144.979 19.9333 145.327 19.09C145.436 18.8083 145.501 18.4622 145.501 18.1161V11.6855H147.416V19.304Z" fill="#30313E"/>
<path d="M150.592 14.9538C150.592 13.7202 150.57 12.6598 150.505 11.6858H152.18L152.245 13.7423H152.332C152.811 12.3356 153.965 11.4482 155.249 11.4482C155.467 11.4482 155.618 11.4703 155.792 11.5128V13.3096C155.596 13.2655 155.401 13.2451 155.14 13.2451C153.79 13.2451 152.832 14.2631 152.572 15.6917C152.529 15.9513 152.485 16.255 152.485 16.5791V22.1631H150.592V14.9538Z" fill="#30313E"/>
<path d="M163.429 22.1618L163.276 20.8417H163.211C162.623 21.6646 161.492 22.3994 159.991 22.3994C157.858 22.3994 156.771 20.9062 156.771 19.391C156.771 16.8594 159.033 15.4732 163.102 15.4953V15.2781C163.102 14.4128 162.862 12.8535 160.709 12.8535C159.73 12.8535 158.707 13.1572 157.967 13.6323L157.532 12.3768C158.403 11.8135 159.665 11.4453 160.992 11.4453C164.212 11.4453 164.996 13.6308 164.996 15.7313V19.649C164.996 20.5585 165.04 21.4459 165.17 22.1602H163.429V22.1618ZM163.145 16.8153C161.056 16.7713 158.685 17.1395 158.685 19.1754C158.685 20.409 159.512 20.9943 160.491 20.9943C161.862 20.9943 162.732 20.1289 163.036 19.2415C163.102 19.0464 163.145 18.8309 163.145 18.6358V16.8153Z" fill="#30313E"/>
<path d="M170 6.79395H168.085V22.1614H170V6.79395Z" fill="#30313E"/>
<path d="M59.8608 51.0142C60.2768 50.9371 60.9342 50.8789 61.6025 50.8789C62.5559 50.8789 63.1682 51.0237 63.6293 51.3509C64.0125 51.6011 64.2431 51.9866 64.2431 52.4979C64.2431 53.1242 63.7726 53.6733 62.9937 53.9234V53.9423C63.6947 54.0965 64.5157 54.6063 64.5157 55.5708C64.5157 56.1294 64.2634 56.5526 63.891 56.8704C63.3769 57.2842 62.5435 57.4778 61.3392 57.4778C60.6818 57.4778 60.1786 57.4384 59.8608 57.4007V51.0142ZM60.8142 53.6733H61.6789C62.6868 53.6733 63.2772 53.2107 63.2772 52.5845C63.2772 51.8229 62.6198 51.5256 61.6555 51.5256C61.2177 51.5256 60.9654 51.5539 60.8127 51.5838V53.6733H60.8142ZM60.8142 56.7839C61.0012 56.8122 61.2738 56.8217 61.6134 56.8217C62.5996 56.8217 63.5078 56.5038 63.5078 55.5598C63.5078 54.674 62.6432 54.3074 61.6025 54.3074H60.8142V56.7839Z" fill="#30313E"/>
<path d="M66.346 55.2441C66.3678 56.3911 67.1997 56.8632 68.164 56.8632C68.8541 56.8632 69.2701 56.7577 69.6315 56.6224L69.7951 57.2298C69.4555 57.3651 68.8744 57.5193 68.0316 57.5193C66.399 57.5193 65.4253 56.5752 65.4253 55.1686C65.4253 53.762 66.3678 52.6543 67.9116 52.6543C69.6424 52.6543 70.102 53.9933 70.102 54.8508C70.102 55.0238 70.0802 55.1592 70.0693 55.2457H66.346V55.2441ZM69.1719 54.6368C69.1829 54.0971 68.9196 53.2585 67.8353 53.2585C66.8601 53.2585 66.4332 54.0483 66.3569 54.6368H69.1719Z" fill="#30313E"/>
<path d="M74.2319 57.4213L74.1556 56.8329H74.1229C73.8269 57.1995 73.2582 57.5267 72.5011 57.5267C71.4278 57.5267 70.8794 56.8628 70.8794 56.1878C70.8794 55.0612 72.0182 54.4444 74.0668 54.4539V54.3579C74.0668 53.9724 73.9468 53.2786 72.8625 53.2786C72.3703 53.2786 71.8546 53.4139 71.4823 53.6247L71.2626 53.0661C71.7004 52.816 72.336 52.6523 73.0043 52.6523C74.626 52.6523 75.0202 53.6247 75.0202 54.5593V56.3026C75.0202 56.707 75.042 57.1019 75.1074 57.4198H74.2319V57.4213ZM74.0886 55.0408C73.037 55.0219 71.8437 55.1855 71.8437 56.0902C71.8437 56.6393 72.2597 56.899 72.7535 56.899C73.4436 56.899 73.8814 56.5135 74.0356 56.1186C74.0683 56.032 74.0901 55.936 74.0901 55.8495V55.0408H74.0886Z" fill="#30313E"/>
<path d="M81.0119 56.1481C81.0119 56.6296 81.0228 57.0544 81.0555 57.4194H80.2018L80.1473 56.6579H80.1255C79.8731 57.0339 79.3154 57.5248 78.3729 57.5248C77.541 57.5248 76.5439 57.1205 76.5439 55.4826V52.7559H77.5083V55.3378C77.5083 56.2236 77.8152 56.8215 78.6907 56.8215C79.3372 56.8215 79.7859 56.4266 79.9619 56.0506C80.0164 55.9247 80.0491 55.7705 80.0491 55.6163V52.7559H81.0135V56.1481H81.0119Z" fill="#30313E"/>
<path d="M83.7722 51.4189V52.7579H85.1525V53.403H83.7722V55.9173C83.7722 56.4948 83.9591 56.822 84.495 56.822C84.7474 56.822 84.9328 56.7937 85.0543 56.7638L85.0979 57.3995C84.911 57.4671 84.6166 57.5143 84.2442 57.5143C83.7956 57.5143 83.4341 57.3884 83.2036 57.1587C82.9294 56.9086 82.8312 56.4948 82.8312 55.9456V53.403H82.0103V52.7579H82.8312V51.6408L83.7722 51.4189Z" fill="#30313E"/>
<path d="M86.6858 52.7574L87.8464 55.5125C87.9664 55.8209 88.0988 56.1875 88.1861 56.4659H88.2079C88.306 56.1859 88.4166 55.8303 88.5475 55.4936L89.599 52.7574H90.6179L89.1722 56.0805C88.4821 57.679 88.0116 58.4988 87.3542 58.9991C86.8837 59.3657 86.4117 59.5105 86.1717 59.5482L85.9303 58.8355C86.1717 58.7678 86.4895 58.6325 86.7731 58.4217C87.0364 58.2392 87.3651 57.9103 87.5832 57.4776C87.6268 57.3911 87.6595 57.3235 87.6595 57.2747C87.6595 57.2259 87.6377 57.1598 87.5941 57.0528L85.6343 52.7559H86.6858V52.7574Z" fill="#30313E"/>
<path d="M93.7179 56.4C94.1448 56.6313 94.7695 56.8232 95.4269 56.8232C96.4021 56.8232 96.9708 56.3701 96.9708 55.7155C96.9708 55.1082 96.5766 54.7621 95.5796 54.4254C94.3754 54.0493 93.6307 53.5002 93.6307 52.5845C93.6307 51.5728 94.5841 50.8223 96.0189 50.8223C96.7745 50.8223 97.3228 50.9765 97.6515 51.1401L97.3883 51.8245C97.1468 51.7097 96.6545 51.5161 95.9862 51.5161C94.9783 51.5161 94.595 52.0464 94.595 52.4885C94.595 53.0958 95.0437 53.3948 96.0625 53.7409C97.3104 54.1642 97.946 54.6944 97.946 55.6479C97.946 56.6502 97.1032 57.5171 95.3615 57.5171C94.6495 57.5171 93.8722 57.3346 93.478 57.1033L93.7179 56.4Z" fill="#30313E"/>
<path d="M99.8182 55.2441C99.84 56.3911 100.672 56.8632 101.636 56.8632C102.326 56.8632 102.742 56.7577 103.104 56.6224L103.267 57.2298C102.928 57.3651 102.347 57.5193 101.504 57.5193C99.8711 57.5193 98.8975 56.5752 98.8975 55.1686C98.8975 53.762 99.84 52.6543 101.384 52.6543C103.115 52.6543 103.574 53.9933 103.574 54.8508C103.574 55.0238 103.552 55.1592 103.541 55.2457H99.8182V55.2441ZM102.644 54.6368C102.655 54.0971 102.392 53.2585 101.307 53.2585C100.332 53.2585 99.9054 54.0483 99.8291 54.6368H102.644Z" fill="#30313E"/>
<path d="M104.769 54.2132C104.769 53.664 104.758 53.192 104.726 52.7578H105.568L105.601 53.6735H105.645C105.886 53.0473 106.466 52.6523 107.112 52.6523C107.221 52.6523 107.299 52.6618 107.386 52.6807V53.48C107.288 53.4611 107.189 53.4516 107.058 53.4516C106.378 53.4516 105.897 53.9048 105.765 54.5404C105.743 54.6553 105.721 54.7906 105.721 54.9354V57.4213H104.768V54.2132H104.769Z" fill="#30313E"/>
<path d="M108.997 52.7578L110.038 55.3775C110.212 55.8008 110.356 56.1863 110.465 56.5717H110.497C110.617 56.1863 110.772 55.8008 110.946 55.3775L111.976 52.7578H112.984L110.902 57.4198H109.982L107.966 52.7578H108.997Z" fill="#30313E"/>
<path d="M114.965 51.4472C114.976 51.7367 114.735 51.968 114.352 51.968C114.012 51.968 113.771 51.7367 113.771 51.4472C113.771 51.1483 114.023 50.917 114.373 50.917C114.736 50.9186 114.965 51.1499 114.965 51.4472ZM113.892 52.7579H114.856V57.4199H113.892V52.7579Z" fill="#30313E"/>
<path d="M120.234 57.247C119.982 57.3619 119.424 57.5161 118.712 57.5161C117.112 57.5161 116.073 56.5626 116.073 55.1371C116.073 53.7021 117.19 52.6621 118.921 52.6621C119.491 52.6621 119.994 52.788 120.258 52.9028L120.038 53.5574C119.807 53.4425 119.446 53.3355 118.921 53.3355C117.706 53.3355 117.048 54.1254 117.048 55.0977C117.048 56.1771 117.837 56.8411 118.888 56.8411C119.435 56.8411 119.797 56.7152 120.071 56.6098L120.234 57.247Z" fill="#30313E"/>
<path d="M121.834 55.2441C121.856 56.3911 122.688 56.8632 123.652 56.8632C124.342 56.8632 124.758 56.7577 125.12 56.6224L125.283 57.2298C124.944 57.3651 124.363 57.5193 123.52 57.5193C121.887 57.5193 120.914 56.5752 120.914 55.1686C120.914 53.762 121.856 52.6543 123.4 52.6543C125.131 52.6543 125.59 53.9933 125.59 54.8508C125.59 55.0238 125.568 55.1592 125.558 55.2457H121.834V55.2441ZM124.66 54.6368C124.671 54.0971 124.408 53.2585 123.324 53.2585C122.348 53.2585 121.922 54.0483 121.845 54.6368H124.66Z" fill="#30313E"/>
<path d="M126.653 56.5524C126.938 56.7161 127.441 56.8891 127.924 56.8891C128.625 56.8891 128.954 56.5808 128.954 56.1953C128.954 55.7909 128.679 55.5691 127.967 55.3378C127.014 55.0388 126.565 54.5762 126.565 54.0177C126.565 53.2656 127.255 52.6504 128.394 52.6504C128.932 52.6504 129.402 52.7857 129.698 52.9399L129.457 53.5567C129.248 53.4418 128.865 53.2876 128.372 53.2876C127.802 53.2876 127.485 53.5771 127.485 53.9233C127.485 54.3088 127.802 54.4818 128.492 54.7131C129.413 55.0215 129.884 55.4259 129.884 56.1197C129.884 56.9379 129.161 57.5169 127.9 57.5169C127.319 57.5169 126.783 57.3911 126.411 57.1991L126.653 56.5524Z" fill="#30313E"/>
<path d="M52.5217 11.8115C51.3502 8.38467 49.6848 5.72405 47.5272 3.82967C44.6031 1.2776 40.8502 0 36.2686 0C35.5582 0 34.8057 0.0204543 34.0159 0.0597894H17.7783C12.5641 0.100698 8.23797 2.0942 4.79977 6.04502C1.59992 9.71735 0 16.0204 0 24.9589V47.9416C6.74242 47.9416 12.2074 42.4221 12.2074 35.6124V21.1875C12.3647 15.2825 15.2686 12.2899 20.919 12.2096H32.5344C38.8951 12.09 41.8971 16.1006 41.5419 24.2399V65.8973C48.4152 65.8973 53.9877 60.2693 53.9877 53.329V20.8397C53.9877 17.77 53.5141 14.7129 52.5217 11.8115Z" fill="#F15A24"/>
<path d="M7.82981 50.0811C3.50519 50.0811 0 53.6212 0 57.989C0 62.3568 3.50519 65.8969 7.82981 65.8969C12.1544 65.8969 15.6596 62.3568 15.6596 57.989C15.6612 53.6212 12.1544 50.0811 7.82981 50.0811Z" fill="#F15A24"/>
<path d="M59.9199 27.4199H65.0686V35.3546H74.8333V27.4199H79.982V48.5271H74.8333V39.4344H65.0686V48.5271H59.9199V27.4199Z" fill="#30313E"/>
<path d="M90.4481 27.4199V39.3526C90.4481 43.8415 92.816 44.976 95.4223 44.976C98.1984 44.976 100.054 43.788 100.054 39.3526V27.4199H105.203V39.5194C105.203 45.9232 101.584 48.9756 95.279 48.9756C89.1784 48.9756 85.2993 46.1843 85.2993 39.6343V27.4199H90.4481Z" fill="#30313E"/>
<path d="M110.5 27.4199H122.244C127.321 27.4199 129.53 29.8776 129.53 32.856C129.53 35.2995 127.995 36.7534 126.363 37.3591C128.416 37.9932 130.306 39.5682 130.306 42.2445C130.306 46.2048 127.252 48.5271 122.054 48.5271H110.502V27.4199H110.5ZM121.167 35.6819C123.471 35.6819 124.207 34.7724 124.207 33.4964C124.207 31.9057 122.99 31.2575 121.212 31.2575H115.57V35.6819H121.167ZM115.57 44.7148H121.385C123.368 44.7148 124.875 44.1358 124.875 42.0479C124.875 40.3627 123.724 39.4942 121.483 39.4942H115.57V44.7148Z" fill="#30313E"/>
</g>
<defs>
<clipPath id="clip0_520_7053">
<rect width="170" height="65.8989" fill="white"/>
</clipPath>
</defs>
</svg>
