<svg width="100" height="38" viewBox="0 0 100 38" fill="none" xmlns="http://www.w3.org/2000/svg">
<g clip-path="url(#clip0_658_7399)">
<path d="M37.9513 4.36719H39.0647V9.99601C39.0647 12.2298 37.9385 12.9166 36.4539 12.9166C36.0443 12.9166 35.5449 12.8295 35.2635 12.717L35.4303 11.8306C35.6603 11.9176 35.993 11.993 36.365 11.993C37.363 11.993 37.9522 11.5556 37.9522 9.90891V4.36719H37.9513Z" fill="white"/>
<path d="M46.4884 9.70903C46.4884 11.9428 44.9012 12.9163 43.4038 12.9163C41.7268 12.9163 40.4347 11.7178 40.4347 9.80883C40.4347 7.78648 41.7919 6.60156 43.5065 6.60156C45.2852 6.60066 46.4884 7.86179 46.4884 9.70903ZM41.5738 9.77163C41.5738 11.0945 42.3546 12.0934 43.4551 12.0934C44.5301 12.0934 45.3365 11.1072 45.3365 9.74714C45.3365 8.72371 44.8114 7.42538 43.4808 7.42538C42.1502 7.42538 41.5738 8.623 41.5738 9.77163Z" fill="white"/>
<path d="M47.8575 12.7795C47.8831 12.3676 47.9088 11.756 47.9088 11.2189V3.91797H49.0222V7.71225H49.0479C49.4447 7.03814 50.1613 6.60173 51.1592 6.60173C52.6951 6.60173 53.7829 7.85016 53.77 9.6847C53.77 11.844 52.3753 12.9174 50.9925 12.9174C50.0962 12.9174 49.3796 12.5808 48.9187 11.7814H48.8802L48.8289 12.7795H47.8575ZM49.0222 10.3579C49.0222 10.4949 49.0479 10.6328 49.0735 10.7571C49.2907 11.5183 49.9441 12.0427 50.7634 12.0427C51.9409 12.0427 52.6447 11.1064 52.6447 9.72099C52.6447 8.51067 52.0051 7.47454 50.8018 7.47454C50.0339 7.47454 49.3173 7.98625 49.0864 8.82277C49.0607 8.94798 49.0222 9.09768 49.0222 9.27188V10.3579Z" fill="white"/>
<path d="M58.6214 12.7792L58.5316 12.0179H58.4931C58.1476 12.4925 57.4823 12.9162 56.5989 12.9162C55.3444 12.9162 54.7047 12.0551 54.7047 11.1814C54.7047 9.72159 56.0353 8.92227 58.4289 8.93497V8.80977C58.4289 8.31076 58.2878 7.41163 57.0214 7.41163C56.4459 7.41163 55.8438 7.58674 55.4085 7.86074L55.1529 7.13673C55.6651 6.81192 56.4074 6.59961 57.1882 6.59961C59.0823 6.59961 59.5433 7.85983 59.5433 9.07107V11.3302C59.5433 11.8546 59.5689 12.3663 59.6459 12.7783H58.6214V12.7792ZM58.4546 9.69619C57.2257 9.67078 55.831 9.88309 55.831 11.0571C55.831 11.7684 56.3176 12.1059 56.8931 12.1059C57.6995 12.1059 58.2118 11.6069 58.3905 11.0952C58.4289 10.9827 58.4546 10.8584 58.4546 10.7459V9.69619Z" fill="white"/>
<path d="M64.0739 8.37245C64.0739 7.74824 64.0611 7.23653 64.0226 6.73752H65.0205L65.0847 7.73554H65.1103C65.4173 7.16122 66.1339 6.59961 67.1585 6.59961C68.0162 6.59961 69.3468 7.09862 69.3468 9.17087V12.7783H68.2206V9.29607C68.2206 8.32255 67.8494 7.51144 66.7873 7.51144C66.0451 7.51144 65.4686 8.02315 65.2771 8.63466C65.2258 8.77166 65.2001 8.95947 65.2001 9.14637V12.7783H64.0739V8.37245Z" fill="white"/>
<path d="M74.6069 12.7792L74.5171 12.0179H74.4786C74.1331 12.4925 73.4678 12.9162 72.5844 12.9162C71.3299 12.9162 70.6902 12.0551 70.6902 11.1814C70.6902 9.72159 72.0208 8.92227 74.4144 8.93497V8.80977C74.4144 8.31076 74.2733 7.41163 73.0068 7.41163C72.4314 7.41163 71.8293 7.58674 71.394 7.86074L71.1383 7.13673C71.6506 6.81192 72.3929 6.59961 73.1736 6.59961C75.0678 6.59961 75.5287 7.85983 75.5287 9.07107V11.3302C75.5287 11.8546 75.5544 12.3663 75.6314 12.7783H74.6069V12.7792ZM74.441 9.69619C73.2121 9.67078 71.8174 9.88309 71.8174 11.0571C71.8174 11.7684 72.304 12.1059 72.8795 12.1059C73.6859 12.1059 74.1982 11.6069 74.3768 11.0952C74.4153 10.9827 74.441 10.8584 74.441 10.7459V9.69619Z" fill="white"/>
<path d="M78.6518 5.00195V6.73669H80.2647V7.57321H78.6518V10.8313C78.6518 11.5798 78.869 12.0044 79.4967 12.0044C79.7909 12.0044 80.009 11.9672 80.1492 11.9291L80.2005 12.7529C79.9833 12.84 79.6378 12.9026 79.2026 12.9026C78.6775 12.9026 78.255 12.7402 77.9865 12.4408C77.6667 12.116 77.5512 11.5798 77.5512 10.8685V7.57321H76.5909V6.73669H77.5512V5.28956L78.6518 5.00195Z" fill="white"/>
<path d="M86.7151 11.1314C86.7151 11.7556 86.7279 12.3045 86.7664 12.779H85.7685L85.7043 11.7928H85.6787C85.3845 12.2791 84.7311 12.916 83.6305 12.916C82.6583 12.916 81.4935 12.3916 81.4935 10.2704V6.73828H82.6198V10.0835C82.6198 11.2321 82.9781 12.006 84.0017 12.006C84.7568 12.006 85.2819 11.4943 85.4862 11.008C85.5504 10.8456 85.5889 10.646 85.5889 10.4464V6.73828H86.7151V11.1314Z" fill="white"/>
<path d="M88.5836 8.623C88.5836 7.91169 88.5708 7.30017 88.5323 6.73856H89.5174L89.5559 7.92439H89.6072C89.8886 7.11327 90.5676 6.60156 91.3227 6.60156C91.451 6.60156 91.5399 6.61426 91.6425 6.63876V7.67489C91.5271 7.64948 91.4125 7.63769 91.2586 7.63769C90.465 7.63769 89.9014 8.2247 89.7484 9.04852C89.7227 9.19822 89.6971 9.37333 89.6971 9.56023V12.7802H88.5836V8.623Z" fill="white"/>
<path d="M96.1347 12.7792L96.0449 12.0179H96.0064C95.6609 12.4925 94.9956 12.9162 94.1122 12.9162C92.8577 12.9162 92.218 12.0551 92.218 11.1814C92.218 9.72159 93.5486 8.92227 95.9422 8.93497V8.80977C95.9422 8.31076 95.8011 7.41163 94.5346 7.41163C93.9592 7.41163 93.3571 7.58674 92.9218 7.86074L92.6661 7.13673C93.1784 6.81192 93.9207 6.59961 94.7014 6.59961C96.5956 6.59961 97.0565 7.85983 97.0565 9.07107V11.3302C97.0565 11.8546 97.0822 12.3663 97.1592 12.7783H96.1347V12.7792ZM95.9679 9.69619C94.739 9.67078 93.3443 9.88309 93.3443 11.0571C93.3443 11.7684 93.8309 12.1059 94.4063 12.1059C95.2128 12.1059 95.725 11.6069 95.9037 11.0952C95.9422 10.9827 95.9679 10.8584 95.9679 10.7459V9.69619Z" fill="white"/>
<path d="M100 3.91797H98.8737V12.7795H100V3.91797Z" fill="white"/>
<path d="M35.2122 29.4179C35.4569 29.3734 35.8436 29.3398 36.2368 29.3398C36.7976 29.3398 37.1577 29.4233 37.429 29.612C37.6544 29.7563 37.7901 29.9786 37.7901 30.2734C37.7901 30.6345 37.5133 30.9512 37.0551 31.0954V31.1063C37.4675 31.1953 37.9504 31.4892 37.9504 32.0454C37.9504 32.3675 37.802 32.6115 37.5829 32.7948C37.2805 33.0334 36.7903 33.145 36.0819 33.145C35.6952 33.145 35.3992 33.1223 35.2122 33.1006V29.4179ZM35.7731 30.9512H36.2817C36.8746 30.9512 37.2219 30.6844 37.2219 30.3233C37.2219 29.8842 36.8352 29.7127 36.2679 29.7127C36.0104 29.7127 35.862 29.7291 35.7722 29.7463V30.9512H35.7731ZM35.7731 32.7449C35.883 32.7612 36.0434 32.7667 36.2432 32.7667C36.8233 32.7667 37.3575 32.5834 37.3575 32.039C37.3575 31.5282 36.8489 31.3168 36.2368 31.3168H35.7731V32.7449Z" fill="white"/>
<path d="M39.0272 31.8567C39.04 32.5181 39.5294 32.7903 40.0966 32.7903C40.5026 32.7903 40.7472 32.7295 40.9598 32.6515L41.0561 33.0017C40.8563 33.0797 40.5145 33.1686 40.0187 33.1686C39.0583 33.1686 38.4856 32.6242 38.4856 31.8131C38.4856 31.002 39.04 30.3633 39.9482 30.3633C40.9663 30.3633 41.2366 31.1354 41.2366 31.6299C41.2366 31.7297 41.2238 31.8077 41.2174 31.8576H39.0272V31.8567ZM40.6895 31.5065C40.6959 31.1953 40.5411 30.7117 39.9032 30.7117C39.3296 30.7117 39.0785 31.1671 39.0336 31.5065H40.6895Z" fill="white"/>
<path d="M43.6659 33.1113L43.621 32.772H43.6018C43.4277 32.9834 43.0932 33.1721 42.6478 33.1721C42.0164 33.1721 41.6938 32.7892 41.6938 32.4C41.6938 31.7504 42.3637 31.3947 43.5688 31.4002V31.3448C43.5688 31.1225 43.4982 30.7224 42.8604 30.7224C42.5708 30.7224 42.2675 30.8005 42.0485 30.922L41.9193 30.5999C42.1768 30.4557 42.5507 30.3613 42.9438 30.3613C43.8978 30.3613 44.1296 30.922 44.1296 31.461V32.4662C44.1296 32.6994 44.1424 32.9271 44.1809 33.1104H43.6659V33.1113ZM43.5816 31.7386C42.963 31.7277 42.2611 31.8221 42.2611 32.3438C42.2611 32.6604 42.5058 32.8101 42.7963 32.8101C43.2022 32.8101 43.4597 32.5878 43.5504 32.3601C43.5697 32.3102 43.5825 32.2548 43.5825 32.2049V31.7386H43.5816Z" fill="white"/>
<path d="M47.6541 32.378C47.6541 32.6556 47.6605 32.9006 47.6797 33.1111H47.1775L47.1455 32.672H47.1326C46.9842 32.8888 46.6561 33.1719 46.1017 33.1719C45.6123 33.1719 45.0258 32.9387 45.0258 31.9942V30.4219H45.5931V31.9107C45.5931 32.4215 45.7736 32.7663 46.2886 32.7663C46.6689 32.7663 46.9329 32.5386 47.0364 32.3217C47.0685 32.2492 47.0877 32.1602 47.0877 32.0713V30.4219H47.655V32.378H47.6541Z" fill="white"/>
<path d="M49.2779 29.6504V30.4225H50.0898V30.7945H49.2779V32.2443C49.2779 32.5773 49.3879 32.766 49.7031 32.766C49.8516 32.766 49.9606 32.7497 50.0321 32.7325L50.0577 33.099C49.9478 33.138 49.7746 33.1652 49.5556 33.1652C49.2916 33.1652 49.079 33.0926 48.9434 32.9602C48.7821 32.8159 48.7244 32.5773 48.7244 32.2607V30.7945H48.2415V30.4225H48.7244V29.7783L49.2779 29.6504Z" fill="white"/>
<path d="M50.9915 30.4228L51.6743 32.0114C51.7448 32.1893 51.8227 32.4007 51.874 32.5613H51.8869C51.9446 32.3998 52.0097 32.1947 52.0866 32.0006L52.7052 30.4228H53.3045L52.4541 32.339C52.0481 33.2608 51.7714 33.7335 51.3847 34.022C51.1079 34.2334 50.8303 34.3169 50.6891 34.3386L50.5471 33.9276C50.6891 33.8886 50.8761 33.8106 51.0429 33.689C51.1977 33.5838 51.3911 33.3942 51.5194 33.1447C51.545 33.0948 51.5643 33.0557 51.5643 33.0276C51.5643 32.9995 51.5515 32.9614 51.5258 32.8997L50.373 30.4219H50.9915V30.4228Z" fill="white"/>
<path d="M55.1281 32.523C55.3792 32.6564 55.7467 32.767 56.1334 32.767C56.707 32.767 57.0415 32.5057 57.0415 32.1283C57.0415 31.7781 56.8097 31.5785 56.2232 31.3843C55.5148 31.1675 55.0768 30.8508 55.0768 30.3228C55.0768 29.7394 55.6376 29.3066 56.4816 29.3066C56.926 29.3066 57.2486 29.3956 57.442 29.4899L57.2871 29.8846C57.1451 29.8184 56.8555 29.7068 56.4624 29.7068C55.8695 29.7068 55.644 30.0125 55.644 30.2675C55.644 30.6177 55.9079 30.7901 56.5073 30.9897C57.2413 31.2337 57.6152 31.5395 57.6152 32.0893C57.6152 32.6672 57.1194 33.1672 56.0949 33.1672C55.6761 33.1672 55.2188 33.0619 54.987 32.9285L55.1281 32.523Z" fill="white"/>
<path d="M58.7167 31.8567C58.7295 32.5181 59.2189 32.7903 59.7861 32.7903C60.1921 32.7903 60.4368 32.7295 60.6494 32.6515L60.7456 33.0017C60.5458 33.0797 60.204 33.1686 59.7082 33.1686C58.7479 33.1686 58.1751 32.6242 58.1751 31.8131C58.1751 31.002 58.7295 30.3633 59.6377 30.3633C60.6558 30.3633 60.9261 31.1354 60.9261 31.6299C60.9261 31.7297 60.9133 31.8077 60.9069 31.8576H58.7167V31.8567ZM60.379 31.5065C60.3854 31.1953 60.2306 30.7117 59.5928 30.7117C59.0191 30.7117 58.768 31.1671 58.7231 31.5065H60.379Z" fill="white"/>
<path d="M61.629 31.2614C61.629 30.9447 61.6226 30.6725 61.6033 30.4221H62.0991L62.1183 30.9502H62.144C62.286 30.5891 62.6269 30.3613 63.0072 30.3613C63.0714 30.3613 63.1172 30.3668 63.1685 30.3777V30.8386C63.1108 30.8277 63.0521 30.8222 62.9752 30.8222C62.5756 30.8222 62.2925 31.0835 62.2146 31.4501C62.2017 31.5163 62.1889 31.5943 62.1889 31.6778V33.1113H61.6281V31.2614H61.629Z" fill="white"/>
<path d="M64.116 30.4219L64.7282 31.9325C64.8308 32.1766 64.9151 32.3989 64.9793 32.6211H64.9985C65.0691 32.3989 65.1598 32.1766 65.2625 31.9325L65.8682 30.4219H66.4611L65.2368 33.1102H64.6952L63.5094 30.4219H64.116Z" fill="white"/>
<path d="M67.6267 29.6671C67.6331 29.834 67.4911 29.9674 67.2657 29.9674C67.0659 29.9674 66.9239 29.834 66.9239 29.6671C66.9239 29.4947 67.0723 29.3613 67.2785 29.3613C67.492 29.3622 67.6267 29.4956 67.6267 29.6671ZM66.9953 30.4229H67.5626V33.1112H66.9953V30.4229Z" fill="white"/>
<path d="M70.726 33.011C70.5775 33.0773 70.2494 33.1662 69.8307 33.1662C68.8895 33.1662 68.2783 32.6164 68.2783 31.7944C68.2783 30.9669 68.9353 30.3672 69.9534 30.3672C70.2888 30.3672 70.5848 30.4398 70.7397 30.506L70.6105 30.8834C70.4749 30.8172 70.2623 30.7555 69.9534 30.7555C69.2387 30.7555 68.8519 31.211 68.8519 31.7717C68.8519 32.3941 69.3156 32.7769 69.9342 32.7769C70.2559 32.7769 70.4685 32.7044 70.6297 32.6436L70.726 33.011Z" fill="white"/>
<path d="M71.6671 31.8567C71.6799 32.5181 72.1693 32.7903 72.7365 32.7903C73.1425 32.7903 73.3872 32.7295 73.5998 32.6515L73.696 33.0017C73.4962 33.0797 73.1544 33.1686 72.6586 33.1686C71.6983 33.1686 71.1255 32.6242 71.1255 31.8131C71.1255 31.002 71.6799 30.3633 72.5881 30.3633C73.6062 30.3633 73.8765 31.1354 73.8765 31.6299C73.8765 31.7297 73.8637 31.8077 73.8573 31.8576H71.6671V31.8567ZM73.3294 31.5065C73.3358 31.1953 73.181 30.7117 72.5432 30.7117C71.9695 30.7117 71.7184 31.1671 71.6735 31.5065H73.3294Z" fill="white"/>
<path d="M74.5015 32.6114C74.6692 32.7058 74.9652 32.8056 75.2493 32.8056C75.6616 32.8056 75.855 32.6277 75.855 32.4055C75.855 32.1723 75.6937 32.0443 75.2749 31.911C74.7141 31.7386 74.4502 31.4719 74.4502 31.1498C74.4502 30.7161 74.8561 30.3613 75.526 30.3613C75.8422 30.3613 76.1189 30.4394 76.293 30.5283L76.151 30.8839C76.0282 30.8177 75.8028 30.7288 75.5132 30.7288C75.1778 30.7288 74.9908 30.8957 74.9908 31.0953C74.9908 31.3176 75.1778 31.4174 75.5837 31.5508C76.1253 31.7286 76.4021 31.9618 76.4021 32.3619C76.4021 32.8337 75.9769 33.1676 75.2355 33.1676C74.8937 33.1676 74.5785 33.095 74.3594 32.9843L74.5015 32.6114Z" fill="white"/>
<path d="M30.8951 6.81102C30.206 4.83495 29.2264 3.30072 27.9572 2.20834C26.2371 0.736719 24.0295 0 21.3344 0C20.9166 0 20.474 0.0117948 20.0093 0.034477H10.4578C7.39068 0.0580665 4.84586 1.2076 2.82339 3.48581C0.941131 5.60342 0 9.23802 0 14.3923V27.6451C3.96613 27.6451 7.18082 24.4623 7.18082 20.5356V12.2176C7.27338 8.8125 8.98153 7.08684 12.3053 7.04057H19.1379C22.8795 6.97161 24.6454 9.28429 24.4364 13.9777V37.9991C28.4795 37.9991 31.7575 34.7537 31.7575 30.7517V12.017C31.7575 10.2469 31.4789 8.48406 30.8951 6.81102Z" fill="white"/>
<path d="M4.60577 28.8789C2.06187 28.8789 0 30.9203 0 33.4389C0 35.9576 2.06187 37.999 4.60577 37.999C7.14966 37.999 9.21154 35.9576 9.21154 33.4389C9.21245 30.9203 7.14966 28.8789 4.60577 28.8789Z" fill="white"/>
<path d="M35.2471 15.8105H38.2757V20.386H44.0197V15.8105H47.0483V27.9818H44.0197V22.7386H38.2757V27.9818H35.2471V15.8105Z" fill="white"/>
<path d="M53.2046 15.8105V22.6914C53.2046 25.2799 54.5975 25.9341 56.1307 25.9341C57.7637 25.9341 58.8551 25.2491 58.8551 22.6914V15.8105H61.8837V22.7876C61.8837 26.4803 59.755 28.2404 56.0464 28.2404C52.4578 28.2404 50.176 26.6309 50.176 22.8538V15.8105H53.2046Z" fill="white"/>
<path d="M65.0004 15.8105H71.9081C74.8946 15.8105 76.1941 17.2277 76.1941 18.9452C76.1941 20.3543 75.2914 21.1926 74.331 21.5419C75.5388 21.9075 76.6504 22.8157 76.6504 24.359C76.6504 26.6427 74.8543 27.9818 71.7963 27.9818H65.0013V15.8105H65.0004ZM71.2749 20.5747C72.6302 20.5747 73.0628 20.0503 73.0628 19.3145C73.0628 18.3972 72.3471 18.0234 71.3015 18.0234H67.9823V20.5747H71.2749ZM67.9823 25.7835H71.4032C72.5697 25.7835 73.4559 25.4496 73.4559 24.2456C73.4559 23.2739 72.7787 22.7731 71.4609 22.7731H67.9823V25.7835Z" fill="white"/>
</g>
<defs>
<clipPath id="clip0_658_7399">
<rect width="100" height="38" fill="white"/>
</clipPath>
</defs>
</svg>
